<svg xmlns="http://www.w3.org/2000/svg" width="24" height="24" viewBox="0 0 24 24">
  <metadata><?xpacket begin="﻿" id="W5M0MpCehiHzreSzNTczkc9d"?>
<x:xmpmeta xmlns:x="adobe:ns:meta/" x:xmptk="Adobe XMP Core 5.6-c140 79.160451, 2017/05/06-01:08:21        ">
   <rdf:RDF xmlns:rdf="http://www.w3.org/1999/02/22-rdf-syntax-ns#">
      <rdf:Description rdf:about=""/>
   </rdf:RDF>
</x:xmpmeta>
                                                                                                    
                                                                                                    
                                                                                                    
                                                                                                    
                                                                                                    
                                                                                                    
                                                                                                    
                                                                                                    
                                                                                                    
                                                                                                    
                                                                                                    
                                                                                                    
                                                                                                    
                                                                                                    
                                                                                                    
                                                                                                    
                                                                                                    
                                                                                                    
                                                                                                    
                                                                                                    
                           
<?xpacket end="w"?></metadata>
<defs>
    <style>
      .cls-1 {
        fill: #ccc;
        fill-rule: evenodd;
      }
    </style>
  </defs>
  <path id="Forma_1" data-name="Forma 1" class="cls-1" d="M1415.2,111.2a2.4,2.4,0,1,0,2.4,2.4A2.407,2.407,0,0,0,1415.2,111.2ZM1408,92v2.4h2.4l4.32,9.12-1.68,2.88a4.264,4.264,0,0,0-.24,1.2,2.407,2.407,0,0,0,2.4,2.4h14.4v-2.4h-13.92a0.258,0.258,0,0,1-.24-0.24v-0.12l1.08-2.04h8.88a2.188,2.188,0,0,0,2.04-1.2l4.32-7.8a0.661,0.661,0,0,0,.24-0.6,1.134,1.134,0,0,0-1.2-1.2h-17.76l-1.08-2.4H1408Zm19.2,19.2a2.4,2.4,0,1,0,2.4,2.4A2.407,2.407,0,0,0,1427.2,111.2Z" transform="translate(-1408 -92)"/>
</svg>
