<svg xmlns="http://www.w3.org/2000/svg" width="39" height="49" viewBox="0 0 39 49">
  <metadata><?xpacket begin="﻿" id="W5M0MpCehiHzreSzNTczkc9d"?>
<x:xmpmeta xmlns:x="adobe:ns:meta/" x:xmptk="Adobe XMP Core 5.6-c138 79.159824, 2016/09/14-01:09:01        ">
   <rdf:RDF xmlns:rdf="http://www.w3.org/1999/02/22-rdf-syntax-ns#">
      <rdf:Description rdf:about=""/>
   </rdf:RDF>
</x:xmpmeta>
                                                                                                    
                                                                                                    
                                                                                                    
                                                                                                    
                                                                                                    
                                                                                                    
                                                                                                    
                                                                                                    
                                                                                                    
                                                                                                    
                                                                                                    
                                                                                                    
                                                                                                    
                                                                                                    
                                                                                                    
                                                                                                    
                                                                                                    
                                                                                                    
                                                                                                    
                                                                                                    
                           
<?xpacket end="w"?></metadata>
<defs>
    <style>
      .cls-1 {
        fill: #6789cc;
        fill-rule: evenodd;
      }
    </style>
  </defs>
  <path id="Forma_1" data-name="Forma 1" class="cls-1" d="M544.76,1974.47c0.016-.02.032-0.05,0.046-0.07a0.034,0.034,0,0,0,.014-0.02c0.016-.02.031-0.05,0.044-0.07s0-.01.008-0.02c0.014-.03.028-0.06,0.04-0.09,0,0,0,0,0-.01,0.013-.03.024-0.06,0.034-0.09,0-.01,0-0.01,0-0.01,0.009-.04.018-0.07,0.024-0.1,0-.01,0-0.02,0-0.03,0-.03.009-0.06,0.012-0.08q0.006-.06.006-0.12v-38.61a1.152,1.152,0,0,0-1.147-1.15H507.147a1.152,1.152,0,0,0-1.147,1.15v46.69a1.154,1.154,0,0,0,1.147,1.16h27.647a0.444,0.444,0,0,0,.115-0.01,0.234,0.234,0,0,0,.083-0.01h0.028l0.1-.03h0.011l0.095-.03c0-.01.008-0.01,0.011-0.01,0.029-.01.057-0.03,0.085-0.04a0.016,0.016,0,0,0,.017-0.01c0.025-.01.049-0.03,0.073-0.04,0.008-.01.016-0.01,0.023-0.02s0.042-.03.063-0.04a0.049,0.049,0,0,1,.028-0.02l0.06-.06c0.007-.01.015-0.01,0.022-0.02l9.059-8.08,0.02-.03c0.019-.02.038-0.04,0.055-0.06A0.039,0.039,0,0,0,544.76,1974.47ZM508.3,1936.31h34.41v36.3h-7.911a1.146,1.146,0,0,0-1.147,1.15v6.93H508.3v-44.38Zm32.787,38.6-5.14,4.15v-4.15h5.14Zm-20.574-13.68a1.253,1.253,0,0,0-1.765.22l-3.245,4.21-1.269-1.02a1.256,1.256,0,0,0-1.768.21,1.273,1.273,0,0,0,.2,1.78l2.264,1.82a1.3,1.3,0,0,0,.782.27,0.762,0.762,0,0,0,.15-0.01,1.241,1.241,0,0,0,.842-0.48l4.025-5.22A1.276,1.276,0,0,0,520.508,1961.23Zm0-8.88a1.244,1.244,0,0,0-1.765.22l-3.245,4.21-1.269-1.02a1.256,1.256,0,0,0-1.768.21,1.274,1.274,0,0,0,.2,1.78l2.264,1.81a1.248,1.248,0,0,0,.782.28c0.049,0,.1-0.01.15-0.01a1.28,1.28,0,0,0,.842-0.48l4.025-5.22A1.275,1.275,0,0,0,520.508,1952.35Zm0-8.89a1.246,1.246,0,0,0-1.765.23l-3.245,4.2-1.269-1.01a1.246,1.246,0,0,0-1.768.2,1.286,1.286,0,0,0,.2,1.79l2.264,1.81a1.238,1.238,0,0,0,.782.27,0.762,0.762,0,0,0,.15-0.01,1.241,1.241,0,0,0,.842-0.48l4.025-5.22A1.276,1.276,0,0,0,520.508,1943.46Zm3,4.88H537.6a1.265,1.265,0,0,0,0-2.53H523.509A1.265,1.265,0,0,0,523.509,1948.34Zm0,8.89H537.6a1.27,1.27,0,0,0,0-2.54H523.509A1.27,1.27,0,0,0,523.509,1957.23Zm14.087,8.88a1.27,1.27,0,0,0,0-2.54H523.509a1.27,1.27,0,0,0,0,2.54H537.6Z" transform="translate(-506 -1934)"/>
</svg>
