<svg xmlns="http://www.w3.org/2000/svg" width="53" height="45" viewBox="0 0 53 45">
  <metadata><?xpacket begin="﻿" id="W5M0MpCehiHzreSzNTczkc9d"?>
<x:xmpmeta xmlns:x="adobe:ns:meta/" x:xmptk="Adobe XMP Core 5.6-c138 79.159824, 2016/09/14-01:09:01        ">
   <rdf:RDF xmlns:rdf="http://www.w3.org/1999/02/22-rdf-syntax-ns#">
      <rdf:Description rdf:about=""/>
   </rdf:RDF>
</x:xmpmeta>
                                                                                                    
                                                                                                    
                                                                                                    
                                                                                                    
                                                                                                    
                                                                                                    
                                                                                                    
                                                                                                    
                                                                                                    
                                                                                                    
                                                                                                    
                                                                                                    
                                                                                                    
                                                                                                    
                                                                                                    
                                                                                                    
                                                                                                    
                                                                                                    
                                                                                                    
                                                                                                    
                           
<?xpacket end="w"?></metadata>
<defs>
    <style>
      .cls-1 {
        fill: #6789cc;
        fill-rule: evenodd;
      }
    </style>
  </defs>
  <path class="cls-1" d="M830.022,1948.08c6.832,0,11.978-2.59,11.978-6.04s-5.146-6.04-11.978-6.04-11.977,2.59-11.977,6.04S823.191,1948.08,830.022,1948.08Zm0-9.49c5.7,0,9.333,2.05,9.333,3.46s-3.636,3.46-9.333,3.46-9.332-2.05-9.332-3.46S824.326,1938.59,830.022,1938.59ZM841,1948.2a1.334,1.334,0,0,0-1.7.76c-0.562,1.5-4.264,3.12-9.267,3.12-4.87,0-8.517-1.53-9.222-3.01a1.348,1.348,0,0,0-1.763-.62,1.282,1.282,0,0,0-.639,1.72c1.289,2.69,5.961,4.49,11.624,4.49a21.213,21.213,0,0,0,7.4-1.23c2.292-.87,3.8-2.11,4.353-3.58A1.3,1.3,0,0,0,841,1948.2Zm0,6.59a1.334,1.334,0,0,0-1.7.76c-0.562,1.5-4.264,3.12-9.267,3.12-4.87,0-8.517-1.53-9.222-3.01a1.348,1.348,0,0,0-1.763-.62,1.282,1.282,0,0,0-.639,1.72c1.289,2.69,5.961,4.49,11.624,4.49a21.213,21.213,0,0,0,7.4-1.23c2.292-.87,3.8-2.11,4.353-3.58A1.3,1.3,0,0,0,841,1954.79Zm0,6.58a1.334,1.334,0,0,0-1.7.76c-0.562,1.5-4.264,3.11-9.267,3.11-4.87,0-8.517-1.52-9.222-3a1.33,1.33,0,0,0-1.763-.62,1.282,1.282,0,0,0-.639,1.72c1.289,2.69,5.961,4.49,11.624,4.49a21.213,21.213,0,0,0,7.4-1.23c2.292-.87,3.8-2.11,4.353-3.58A1.3,1.3,0,0,0,841,1961.37Zm0,6.59a1.334,1.334,0,0,0-1.7.76c-0.562,1.5-4.264,3.12-9.267,3.12-4.87,0-8.517-1.53-9.222-3.01a1.339,1.339,0,0,0-1.763-.62,1.282,1.282,0,0,0-.639,1.72c1.289,2.69,5.961,4.49,11.624,4.49a21.213,21.213,0,0,0,7.4-1.23c2.292-.87,3.8-2.11,4.353-3.58A1.287,1.287,0,0,0,841,1967.96Zm0,6.58a1.334,1.334,0,0,0-1.7.76c-0.562,1.5-4.264,3.11-9.267,3.11-4.87,0-8.517-1.52-9.222-3a1.33,1.33,0,0,0-1.763-.62,1.282,1.282,0,0,0-.639,1.72c1.289,2.69,5.961,4.49,11.624,4.49a21.213,21.213,0,0,0,7.4-1.23c2.292-.87,3.8-2.11,4.353-3.58A1.3,1.3,0,0,0,841,1974.54Zm-29.056-13.17a1.334,1.334,0,0,0-1.7.76c-0.562,1.5-4.264,3.11-9.267,3.11-4.87,0-8.517-1.52-9.223-3a1.33,1.33,0,0,0-1.763-.62,1.282,1.282,0,0,0-.639,1.72c1.29,2.69,5.961,4.49,11.625,4.49a21.217,21.217,0,0,0,7.4-1.23c2.292-.87,3.8-2.11,4.352-3.58A1.294,1.294,0,0,0,811.941,1961.37Zm0,6.59a1.334,1.334,0,0,0-1.7.76c-0.562,1.5-4.264,3.12-9.267,3.12-4.87,0-8.517-1.53-9.223-3.01a1.339,1.339,0,0,0-1.763-.62,1.282,1.282,0,0,0-.639,1.72c1.29,2.69,5.961,4.49,11.625,4.49a21.217,21.217,0,0,0,7.4-1.23c2.292-.87,3.8-2.11,4.352-3.58A1.286,1.286,0,0,0,811.941,1967.96Zm0,6.58a1.334,1.334,0,0,0-1.7.76c-0.562,1.5-4.264,3.11-9.267,3.11-4.87,0-8.517-1.52-9.223-3a1.33,1.33,0,0,0-1.763-.62,1.282,1.282,0,0,0-.639,1.72c1.29,2.69,5.961,4.49,11.625,4.49a21.217,21.217,0,0,0,7.4-1.23c2.292-.87,3.8-2.11,4.352-3.58A1.294,1.294,0,0,0,811.941,1974.54Zm-10.964-25.37c-6.832,0-11.977,2.59-11.977,6.04s5.145,6.04,11.977,6.04,11.978-2.59,11.978-6.04S807.809,1949.17,800.977,1949.17Zm0,9.5c-5.7,0-9.333-2.05-9.333-3.46s3.636-3.46,9.333-3.46,9.333,2.05,9.333,3.46S806.674,1958.67,800.977,1958.67Z" transform="translate(-789 -1936)"/>
</svg>
