<svg xmlns="http://www.w3.org/2000/svg" width="40" height="48" viewBox="0 0 40 48">
  <metadata><?xpacket begin="﻿" id="W5M0MpCehiHzreSzNTczkc9d"?>
<x:xmpmeta xmlns:x="adobe:ns:meta/" x:xmptk="Adobe XMP Core 5.6-c138 79.159824, 2016/09/14-01:09:01        ">
   <rdf:RDF xmlns:rdf="http://www.w3.org/1999/02/22-rdf-syntax-ns#">
      <rdf:Description rdf:about=""/>
   </rdf:RDF>
</x:xmpmeta>
                                                                                                    
                                                                                                    
                                                                                                    
                                                                                                    
                                                                                                    
                                                                                                    
                                                                                                    
                                                                                                    
                                                                                                    
                                                                                                    
                                                                                                    
                                                                                                    
                                                                                                    
                                                                                                    
                                                                                                    
                                                                                                    
                                                                                                    
                                                                                                    
                                                                                                    
                                                                                                    
                           
<?xpacket end="w"?></metadata>
<defs>
    <style>
      .cls-1 {
        fill: #6789cc;
        fill-rule: evenodd;
      }
    </style>
  </defs>
  <path class="cls-1" d="M1392.17,1952.57a1.2,1.2,0,0,0-1.21-1.19h-9.74a1.19,1.19,0,1,0,0,2.38h9.74A1.2,1.2,0,0,0,1392.17,1952.57Zm26.61-1.19h-9.74a1.19,1.19,0,1,0,0,2.38h9.74A1.19,1.19,0,1,0,1418.78,1951.38Zm-18.78-6.47a1.212,1.212,0,0,0,1.22-1.19v-9.53a1.22,1.22,0,0,0-2.44,0v9.53A1.212,1.212,0,0,0,1400,1944.91Zm6.39,2.6a1.245,1.245,0,0,0,.86-0.35l6.9-6.75a1.177,1.177,0,0,0,0-1.68,1.225,1.225,0,0,0-1.72,0l-6.9,6.74a1.172,1.172,0,0,0,0,1.69A1.263,1.263,0,0,0,1406.39,1947.51Zm-13.64-.35a1.227,1.227,0,0,0,.86.35,1.245,1.245,0,0,0,.86-0.35,1.172,1.172,0,0,0,0-1.69l-6.9-6.74a1.225,1.225,0,0,0-1.72,0,1.177,1.177,0,0,0,0,1.68Zm21.85,12.91a5.11,5.11,0,0,0-3.27-1.2h-6.96v-4.8c0-2.3-.69-3.98-2.08-4.98-2.19-1.56-5.16-.68-5.29-0.64a1.2,1.2,0,0,0-.85,1.13v5.79a5.32,5.32,0,0,1-2.57,4.46,10.52,10.52,0,0,1-2.8,1.38l-0.12.03a2.474,2.474,0,0,0-1.87-.82h-4.62a2.478,2.478,0,0,0-2.5,2.45v14.82a2.478,2.478,0,0,0,2.5,2.45h4.64a2.489,2.489,0,0,0,1.6-.58,5.168,5.168,0,0,0,3.56,1.44h14.52a6.8,6.8,0,0,0,3.72-.99,5.21,5.21,0,0,0,2.26-3.84l1.87-11.39A5.043,5.043,0,0,0,1414.6,1960.07Zm-25.72,17.62a0.068,0.068,0,0,1-.07.07h-4.64a0.068,0.068,0,0,1-.07-0.07v-14.82a0.068,0.068,0,0,1,.07-0.07h4.64a0.068,0.068,0,0,1,.07.07v14.82Zm25.06-13.28-1.87,11.42a0.109,0.109,0,0,1-.01.05c-0.08.68-.34,2.75-3.57,2.75h-14.52a2.674,2.674,0,0,1-2.63-2.21c-0.01-.05-0.02-0.1-0.03-0.14v-12.74l0.07-.02c0.02,0,.03-0.01.05-0.01a12.691,12.691,0,0,0,3.51-1.69,7.732,7.732,0,0,0,3.64-6.45v-4.81a3.409,3.409,0,0,1,2.27.44c0.73,0.53,1.09,1.56,1.09,3.06v5.99a1.206,1.206,0,0,0,1.22,1.19h8.17a2.706,2.706,0,0,1,1.69.62A2.75,2.75,0,0,1,1413.94,1964.41Z" transform="translate(-1380 -1933)"/>
</svg>
