<svg xmlns="http://www.w3.org/2000/svg" width="56" height="63" viewBox="0 0 56 63">
  <metadata><?xpacket begin="﻿" id="W5M0MpCehiHzreSzNTczkc9d"?>
<x:xmpmeta xmlns:x="adobe:ns:meta/" x:xmptk="Adobe XMP Core 5.6-c138 79.159824, 2016/09/14-01:09:01        ">
   <rdf:RDF xmlns:rdf="http://www.w3.org/1999/02/22-rdf-syntax-ns#">
      <rdf:Description rdf:about=""/>
   </rdf:RDF>
</x:xmpmeta>
                                                                                                    
                                                                                                    
                                                                                                    
                                                                                                    
                                                                                                    
                                                                                                    
                                                                                                    
                                                                                                    
                                                                                                    
                                                                                                    
                                                                                                    
                                                                                                    
                                                                                                    
                                                                                                    
                                                                                                    
                                                                                                    
                                                                                                    
                                                                                                    
                                                                                                    
                                                                                                    
                           
<?xpacket end="w"?></metadata>
<defs>
    <style>
      .cls-1 {
        fill: #ffa508;
        fill-rule: evenodd;
      }
    </style>
  </defs>
  <path id="Forma_1" data-name="Forma 1" class="cls-1" d="M1368.35,2582.4a1.349,1.349,0,0,1,1.35,1.34v16.72h11.11v-20.65h0v-2.58h-12.46a1.345,1.345,0,1,1,0-2.69h13.81a1.342,1.342,0,0,1,1.35,1.34v0.68l8.58-8.57a4.6,4.6,0,0,1,4.84-1.05,14.234,14.234,0,0,1,3.06-22.78,1.368,1.368,0,0,1,1.33.03,1.339,1.339,0,0,1,.66,1.16v11.98h9.65v-11.99a1.352,1.352,0,0,1,1.99-1.18,14.273,14.273,0,0,1,7.45,12.52,14.13,14.13,0,0,1-5.09,10.89v3.51h2.44a4.586,4.586,0,0,1,4.58,4.58v0.06a4.575,4.575,0,0,0,0,6.47v0.06a4.575,4.575,0,0,0,0,6.47v0.06a4.575,4.575,0,0,0,0,6.47v0.06a4.586,4.586,0,0,1-4.58,4.58h-2.65a9.121,9.121,0,0,1-8.88,7.11h-0.16a9.114,9.114,0,0,1-8.88-7.11H1387.1a1.345,1.345,0,1,1,0-2.69h10.53v-11.11a1.345,1.345,0,1,1,2.69,0v11.82a6.414,6.414,0,0,0,6.41,6.4h0.16a6.43,6.43,0,0,0,6.09-4.42h-2.12a4.579,4.579,0,0,1-4.58-4.58v-0.06a4.6,4.6,0,0,0,0-6.47v-0.06a4.6,4.6,0,0,0,0-6.47v-0.06a4.6,4.6,0,0,0,0-6.47v-0.06a4.579,4.579,0,0,1,4.58-4.58h2.43v-4.15a1.35,1.35,0,0,1,.53-1.07,11.548,11.548,0,0,0,.51-17.96v10.77a1.351,1.351,0,0,1-1.35,1.35h-12.35a1.342,1.342,0,0,1-1.34-1.35V2547.9a11.539,11.539,0,0,0,.5,17.96,1.322,1.322,0,0,1,.53,1.07v2.82l3.59,3.59a4.575,4.575,0,0,1,0,6.47l-0.05.05a4.6,4.6,0,0,1-6.47,0l-2.69-2.68a1.351,1.351,0,0,1,1.91-1.91l2.68,2.68a1.883,1.883,0,0,0,2.67,0l0.05-.04a1.9,1.9,0,0,0,0-2.67l-5.35-5.34a1.892,1.892,0,0,0-2.67-.01h0l-10.48,10.48v21.43a1.344,1.344,0,0,1-1.35,1.35h-13.81a1.344,1.344,0,0,1-1.35-1.35v-18.06A1.342,1.342,0,0,1,1368.35,2582.4Zm40.62-.21v0.06a1.9,1.9,0,0,0,1.89,1.89h7.56a1.886,1.886,0,0,0,1.88-1.89v-0.06a1.886,1.886,0,0,0-1.88-1.89h-7.56A1.9,1.9,0,0,0,1408.97,2582.19Zm0,6.53v0.06a1.9,1.9,0,0,0,1.89,1.89h7.56a1.886,1.886,0,0,0,1.88-1.89v-0.06a1.886,1.886,0,0,0-1.88-1.89h-7.56A1.9,1.9,0,0,0,1408.97,2588.72Zm0,6.59a1.9,1.9,0,0,0,1.89,1.89h7.56a1.886,1.886,0,0,0,1.88-1.89v-0.06a1.886,1.886,0,0,0-1.88-1.89h-7.56a1.9,1.9,0,0,0-1.89,1.89v0.06h0Zm0-19.65v0.06a1.9,1.9,0,0,0,1.89,1.89h7.56a1.886,1.886,0,0,0,1.88-1.89v-0.06a1.886,1.886,0,0,0-1.88-1.89h-7.56A1.9,1.9,0,0,0,1408.97,2575.66Z" transform="translate(-1367 -2544)"/>
</svg>
