<svg xmlns="http://www.w3.org/2000/svg" width="71" height="71" viewBox="0 0 71 71">
  <metadata><?xpacket begin="﻿" id="W5M0MpCehiHzreSzNTczkc9d"?>
<x:xmpmeta xmlns:x="adobe:ns:meta/" x:xmptk="Adobe XMP Core 5.6-c138 79.159824, 2016/09/14-01:09:01        ">
   <rdf:RDF xmlns:rdf="http://www.w3.org/1999/02/22-rdf-syntax-ns#">
      <rdf:Description rdf:about=""/>
   </rdf:RDF>
</x:xmpmeta>
                                                                                                    
                                                                                                    
                                                                                                    
                                                                                                    
                                                                                                    
                                                                                                    
                                                                                                    
                                                                                                    
                                                                                                    
                                                                                                    
                                                                                                    
                                                                                                    
                                                                                                    
                                                                                                    
                                                                                                    
                                                                                                    
                                                                                                    
                                                                                                    
                                                                                                    
                                                                                                    
                           
<?xpacket end="w"?></metadata>
<defs>
    <style>
      .cls-1 {
        fill: #ffa508;
        fill-rule: evenodd;
      }
    </style>
  </defs>
  <path id="Forma_1_копия" data-name="Forma 1 копия" class="cls-1" d="M555.788,2399.07l-27-38.93a9.459,9.459,0,0,0-3.7-12.86,9.842,9.842,0,0,0-1.034-.5v-6.6a1.183,1.183,0,0,0-1.183-1.18h-4.734a1.183,1.183,0,0,0-1.183,1.18v6.6a9.469,9.469,0,0,0-5.226,12.33,9.352,9.352,0,0,0,.493,1.03l-27,38.93a1.167,1.167,0,0,0-.213.67v9.07a1.181,1.181,0,0,0,2.153.68l14.283-20.27a36.438,36.438,0,0,0,38.128,0l14.283,20.27a1.18,1.18,0,0,0,2.153-.68v-9.07A1.167,1.167,0,0,0,555.788,2399.07Zm-39.3-49.4a7.054,7.054,0,0,1,1.95-.92l0.047,0.01a1.182,1.182,0,0,0,.84-1.18v-6.21H521.7v6.25a1.2,1.2,0,0,0,.84,1.19,7.093,7.093,0,0,1,4.772,8.83,7,7,0,0,1-3.363,4.16,1.178,1.178,0,0,0-.6.95l-0.39,4.65h-4.9l-0.354-4.67a1.178,1.178,0,0,0-.6-0.94,7.3,7.3,0,0,1-2.509-2.26A7.1,7.1,0,0,1,516.492,2349.67Zm8.707,19.18,10.259,14.55-0.414.25-0.793.44-1.017.51-0.829.38-1.053.43-0.852.32-1.089.37-0.852.26-1.183.3-0.84.2-1.183.21-0.8.13c-0.45.06-.9,0.11-1.361,0.14l-0.674.07c-0.687,0-1.373.08-2.06,0.08a17.728,17.728,0,0,1-2.059-.08l-0.674-.07a10.466,10.466,0,0,1-1.361-.14l-0.8-.13-1.184-.21-0.84-.2-1.183-.3-0.852-.26-1.089-.37-0.852-.32-1.053-.43-0.829-.38-1.017-.51-0.793-.44-0.414-.25,10.318-14.55a0.819,0.819,0,0,0,.06.14,0.863,0.863,0,0,0,.213.36l0.106,0.12a1.78,1.78,0,0,0,.237.14l0.118,0.07a1.153,1.153,0,0,0,.45.08h7.1a1.172,1.172,0,0,0,.414-0.08l0.118-.07a1.719,1.719,0,0,0,.237-0.14l0.107-.12a0.863,0.863,0,0,0,.213-0.36A0.818,0.818,0,0,0,525.2,2368.85Zm-24.259,16.98-0.805,1.18-12.768,18.07v-4.97l26.353-37.94,0.083,0.07c0.154,0.15.331,0.3,0.5,0.45l0.26,0.23a9.652,9.652,0,0,0,.829.61l0.118,1.64-0.781,1.11Zm19.561,6.41a34.062,34.062,0,0,1-17.75-4.93l1.372-1.94,0.545,0.3,0.875,0.49,1.089,0.56,0.9,0.42,1.183,0.48,0.923,0.35,1.183,0.39,0.923,0.3c0.4,0.12.817,0.21,1.184,0.32l0.911,0.22c0.437,0.1.875,0.17,1.313,0.24l0.876,0.15c0.485,0.07.982,0.12,1.467,0.16l0.734,0.07c0.745,0,1.479.08,2.236,0.08a20.794,20.794,0,0,0,2.237-.08l0.734-.07a11.922,11.922,0,0,0,1.467-.16l0.864-.14c0.437-.07.876-0.14,1.313-0.24l0.912-.22c0.414-.1.828-0.2,1.183-0.32l0.923-.3,1.183-.39,0.923-.35,1.183-.48,0.9-.42,1.088-.56,0.876-.48,0.544-.31,1.456,1.93A34.062,34.062,0,0,1,520.5,2392.24Zm33.134,12.84-12.769-18.12-0.8-1.18-13.785-19.51-0.782-1.11,0.119-1.6a9.526,9.526,0,0,0,.828-0.6l0.249-.21c0.177-.16.355-0.31,0.509-0.48l0.07-.07,26.365,37.91v4.97h0Z" transform="translate(-485 -2339)"/>
</svg>
