<svg xmlns="http://www.w3.org/2000/svg" width="72" height="72" viewBox="0 0 72 72">
  <metadata><?xpacket begin="﻿" id="W5M0MpCehiHzreSzNTczkc9d"?>
<x:xmpmeta xmlns:x="adobe:ns:meta/" x:xmptk="Adobe XMP Core 5.6-c138 79.159824, 2016/09/14-01:09:01        ">
   <rdf:RDF xmlns:rdf="http://www.w3.org/1999/02/22-rdf-syntax-ns#">
      <rdf:Description rdf:about=""/>
   </rdf:RDF>
</x:xmpmeta>
                                                                                                    
                                                                                                    
                                                                                                    
                                                                                                    
                                                                                                    
                                                                                                    
                                                                                                    
                                                                                                    
                                                                                                    
                                                                                                    
                                                                                                    
                                                                                                    
                                                                                                    
                                                                                                    
                                                                                                    
                                                                                                    
                                                                                                    
                                                                                                    
                                                                                                    
                                                                                                    
                           
<?xpacket end="w"?></metadata>
<defs>
    <style>
      .cls-1 {
        fill: #ffa508;
        fill-rule: evenodd;
      }
    </style>
  </defs>
  <path class="cls-1" d="M815,2563v-2.4h-7.32a8.4,8.4,0,0,0-8.28-7.2h-12a8.348,8.348,0,0,0-8.4,8.4v16.8h2.4v-16.8a5.942,5.942,0,0,1,6-6h1.2v9.6h-1.2V2563H785v40.8a1.134,1.134,0,0,0,1.2,1.2h14.4a1.134,1.134,0,0,0,1.2-1.2V2563h-2.4v2.4h-1.2v-9.6h1.2a5.942,5.942,0,0,1,6,6,1.134,1.134,0,0,0,1.2,1.2H815Zm-15.6,39.6h-4.8V2581H797v-2.4h-7.2v2.4h2.4v21.6h-4.8v-34.8h12v34.8Zm-3.6-37.2H791v-9.6h4.8v9.6Zm-9.6-19.2a5.942,5.942,0,0,0,6,6h2.4a5.942,5.942,0,0,0,6-6v-2.4H803v-2.4h-2.4V2539a5.942,5.942,0,0,0-6-6h-2.4a5.942,5.942,0,0,0-6,6v2.4h-2.4v2.4h2.4v2.4Zm12,0a3.536,3.536,0,0,1-3.6,3.6h-2.4a3.536,3.536,0,0,1-3.6-3.6v-2.4h9.6v2.4Zm-9.6-7.2a3.536,3.536,0,0,1,3.6-3.6v3.6h2.4v-3.6a3.536,3.536,0,0,1,3.6,3.6v2.4h-9.6V2539Zm1.2,32.4h2.4v2.4h-2.4v-2.4Zm4.8,0H797v2.4h-2.4v-2.4Zm55.2-14.4H818.6a1.134,1.134,0,0,0-1.2,1.2v25.2H809a1.134,1.134,0,0,0-1.2,1.2v19.2a1.134,1.134,0,0,0,1.2,1.2h40.8a1.134,1.134,0,0,0,1.2-1.2v-45.6A1.134,1.134,0,0,0,849.8,2557Zm-13.2,2.4v7.2h-4.8v-7.2h4.8Zm-16.8,0h9.6v8.4a1.134,1.134,0,0,0,1.2,1.2h7.2a1.134,1.134,0,0,0,1.2-1.2v-8.4h9.6v24H819.8v-24Zm18,26.4h2.4v4.8h-2.4v-4.8Zm-19.2,0h1.2v4.8h-2.4v-4.8h1.2Zm-8.4,0H815v6a1.134,1.134,0,0,0,1.2,1.2H821a1.134,1.134,0,0,0,1.2-1.2v-6H827v16.8H810.2v-16.8Zm38.4,16.8H829.4v-16.8h6v6a1.134,1.134,0,0,0,1.2,1.2h4.8a1.134,1.134,0,0,0,1.2-1.2v-6h6v16.8Zm-42-36H815v2.4h-8.4v-2.4Zm6,30H815v2.4h-2.4v-2.4Zm4.8,0h2.4v2.4h-2.4v-2.4Zm14.4,0h2.4v2.4h-2.4v-2.4Zm4.8,0H839v2.4h-2.4v-2.4Zm-13.2-22.8h4.8v2.4h-4.8v-2.4Zm0,4.8H833v2.4h-9.6v-2.4Z" transform="translate(-779 -2533)"/>
</svg>
