<svg xmlns="http://www.w3.org/2000/svg" width="48.03" height="50" viewBox="0 0 48.03 50">
  <metadata><?xpacket begin="﻿" id="W5M0MpCehiHzreSzNTczkc9d"?>
<x:xmpmeta xmlns:x="adobe:ns:meta/" x:xmptk="Adobe XMP Core 5.6-c138 79.159824, 2016/09/14-01:09:01        ">
   <rdf:RDF xmlns:rdf="http://www.w3.org/1999/02/22-rdf-syntax-ns#">
      <rdf:Description rdf:about=""/>
   </rdf:RDF>
</x:xmpmeta>
                                                                                                    
                                                                                                    
                                                                                                    
                                                                                                    
                                                                                                    
                                                                                                    
                                                                                                    
                                                                                                    
                                                                                                    
                                                                                                    
                                                                                                    
                                                                                                    
                                                                                                    
                                                                                                    
                                                                                                    
                                                                                                    
                                                                                                    
                                                                                                    
                                                                                                    
                                                                                                    
                           
<?xpacket end="w"?></metadata>
<defs>
    <style>
      .cls-1 {
        fill: #6789cc;
        fill-rule: evenodd;
      }
    </style>
  </defs>
  <path class="cls-1" d="M1124.66,1939.65a1.2,1.2,0,0,0,1.19-1.2v-3.81a2.625,2.625,0,0,0-2.61-2.64h-25.19a1.224,1.224,0,0,0-.84.35l-9.86,10a1.23,1.23,0,0,0-.35.85v36.16a2.629,2.629,0,0,0,2.6,2.64h33.64a2.631,2.631,0,0,0,2.61-2.64v-18.43a1.2,1.2,0,1,0-2.39,0v18.43a0.224,0.224,0,0,1-.22.23H1089.6a0.231,0.231,0,0,1-.22-0.23v-34.95h7.26a2.625,2.625,0,0,0,2.61-2.64v-7.36h23.99a0.218,0.218,0,0,1,.22.23v3.81A1.2,1.2,0,0,0,1124.66,1939.65Zm-27.8,2.12a0.224,0.224,0,0,1-.22.23h-5.57l5.79-5.88v5.65Zm36.96,0.03-1.4-1.42a4,4,0,0,0-5.7,0l-11.12,11.28h-19.29a1.205,1.205,0,0,0,0,2.41h16.91l-7.17,7.26h-9.74a1.21,1.21,0,0,0,0,2.42h7.36l-0.02.02a1.166,1.166,0,0,0-.3.53l-1.84,6.71h-5.2a1.205,1.205,0,0,0,0,2.41h6.1s0.26-.03.3-0.04c0.01,0,7.52-2.11,7.52-2.11a1.151,1.151,0,0,0,.52-0.31l23.07-23.38A4.135,4.135,0,0,0,1133.82,1941.8Zm-29.7,28.68,0.98-3.54,2.52,2.56Zm5.79-2.08-3.73-3.78,19.04-19.3,3.73,3.78Zm22.23-22.53-1.5,1.52-3.73-3.78,1.5-1.52a1.636,1.636,0,0,1,2.33,0l1.4,1.42A1.69,1.69,0,0,1,1132.14,1945.87Z" transform="translate(-1087 -1932)"/>
</svg>
